<svg width="60" height="60" viewBox="0 0 60 60" version="1.1" xmlns="http://www.w3.org/2000/svg" xmlns:xlink="http://www.w3.org/1999/xlink">
<g fill="none">
<rect width="60" height="60" rx="4" fill="#1A1A1A"/>
<path d="M 15.0268 9.33273C 15.0268 8.87524 14.8494 8.43633 14.5334 8.11186C 14.2174 7.78739 13.7884 7.60373 13.3402 7.60099L 9.27617 7.60099C 8.82792 7.601 8.39788 7.41997 8.07997 7.09745C 7.76206 6.77492 7.58212 6.33711 7.57943 5.87962L 7.57943 1.73174C 7.57944 1.27425 7.40207 0.835335 7.08607 0.510867C 6.77006 0.186399 6.3411 0.00273981 5.89286 3.16458e-07L 1.68658 3.16458e-07C 1.23834 0.00273981 0.80937 0.186399 0.493364 0.510867C 0.177359 0.835335 -7.88105e-06 1.27425 1.55304e-07 1.73174L 1.55304e-07 6.04554C -7.88105e-06 6.50303 0.177359 6.94194 0.493364 7.26641C 0.80937 7.59088 1.23834 7.77454 1.68658 7.77728L 5.75062 7.77728C 6.19886 7.77727 6.6289 7.9583 6.94681 8.28082C 7.26472 8.60334 7.44467 9.04116 7.44735 9.49865L 7.44735 13.4806C 7.44735 13.9399 7.26859 14.3804 6.95039 14.7051C 6.63219 15.0299 6.20062 15.2124 5.75062 15.2124L 1.68658 15.2124C 1.23927 15.2124 0.810281 15.3937 0.493986 15.7165C 0.177692 16.0394 1.55304e-07 16.4772 1.55304e-07 16.9337L 1.55304e-07 21.2579C -7.88105e-06 21.7154 0.177359 22.1543 0.493364 22.4788C 0.80937 22.8032 1.23834 22.9869 1.68658 22.9896L 5.91318 22.9896C 6.36142 22.9869 6.79038 22.8032 7.10639 22.4788C 7.42239 22.1543 7.59976 21.7154 7.59975 21.2579L 7.59975 17.11C 7.59975 16.8831 7.64371 16.6584 7.7291 16.4489C 7.8145 16.2393 7.93964 16.0491 8.09733 15.8891C 8.25502 15.7292 8.44214 15.6026 8.64794 15.5167C 8.85374 15.4308 9.07415 15.3873 9.29649 15.3886L 13.3605 15.3886C 13.8097 15.3832 14.2386 15.1972 14.5544 14.8711C 14.8701 14.545 15.0471 14.105 15.0471 13.6465L 15.0471 9.33273" transform="translate(31.9529 19)" fill="white"/>
<path d="M 15.0776 9.33273C 15.0776 8.87345 14.8988 8.43297 14.5806 8.10821C 14.2624 7.78344 13.8309 7.60099 13.3808 7.60099L 9.31681 7.60099C 8.87032 7.59827 8.44288 7.41604 8.12717 7.09381C 7.81145 6.77158 7.6329 6.33532 7.63023 5.87962L 7.63023 1.73174C 7.63024 1.27425 7.45287 0.835335 7.13687 0.510867C 6.82086 0.186399 6.3919 0.00273981 5.94366 3.16458e-07L 1.72722 3.16458e-07C 1.27898 0.00273981 0.850011 0.186399 0.534006 0.510867C 0.218 0.835335 0.0406324 1.27425 0.0406404 1.73174L 0.0406404 6.04554C 0.0406324 6.50303 0.218 6.94194 0.534006 7.26641C 0.850011 7.59088 1.27898 7.77454 1.72722 7.77728L 5.79126 7.77728C 6.23418 7.78811 6.65538 7.97533 6.96484 8.29893C 7.27431 8.62252 7.44748 9.05683 7.44735 9.50902L 7.44735 13.491C 7.44735 13.9503 7.26859 14.3907 6.95039 14.7155C 6.63219 15.0403 6.20062 15.2227 5.75062 15.2227L 1.68658 15.2227C 1.46509 15.2227 1.24578 15.2672 1.04115 15.3538C 0.836526 15.4403 0.650599 15.5671 0.493986 15.7269C 0.337373 15.8867 0.213141 16.0765 0.128383 16.2854C 0.0436246 16.4942 7.77885e-08 16.718 7.77885e-08 16.9441L 7.77885e-08 21.2683C -7.95856e-06 21.7258 0.17736 22.1647 0.493365 22.4891C 0.809371 22.8136 1.23834 22.9973 1.68658 23L 5.91318 23C 6.36142 22.9973 6.79038 22.8136 7.10639 22.4891C 7.42239 22.1647 7.59976 21.7258 7.59975 21.2683L 7.59975 17.1204C 7.59975 16.6638 7.77744 16.226 8.09374 15.9032C 8.41003 15.5804 8.83902 15.399 9.28633 15.399L 13.3504 15.399C 13.8013 15.3963 14.2329 15.2115 14.5508 14.8851C 14.8687 14.5587 15.0471 14.1171 15.0471 13.6569L 15.0471 9.33273" transform="translate(14 19)" fill="white"/>
</g>
</svg>

