<svg width="20" height="20" viewBox="0 0 20 20" version="1.1" xmlns="http://www.w3.org/2000/svg" xmlns:xlink="http://www.w3.org/1999/xlink">
<g id="Canvas" fill="none">
<g id="Vector">
<path d="M 10.9859 6.99531L 10.9859 4.97653L 9.01408 4.97653L 9.01408 6.99531L 10.9859 6.99531ZM 10.9859 15.0235L 10.9859 9.01408L 9.01408 9.01408L 9.01408 15.0235L 10.9859 15.0235ZM 10 -2.00313e-07C 12.7543 -2.00313e-07 15.1095 0.978091 17.0657 2.93427C 19.0219 4.89045 20 7.2457 20 10C 20 12.7543 19.0219 15.1095 17.0657 17.0657C 15.1095 19.0219 12.7543 20 10 20C 7.2457 20 4.89045 19.0219 2.93427 17.0657C 0.978091 15.1095 9.27964e-09 12.7543 9.27964e-09 10C 9.27964e-09 7.2457 0.978091 4.89045 2.93427 2.93427C 4.89045 0.978091 7.2457 -2.00313e-07 10 -2.00313e-07Z" fill="#1A1A1A"/>
</g>
</g>
</svg>

